<?xml version="1.0" encoding="utf-8"?>
<!-- Generator: Adobe Illustrator 25.3.1, SVG Export Plug-In . SVG Version: 6.00 Build 0)  -->
<svg version="1.1" xmlns="http://www.w3.org/2000/svg" xmlns:xlink="http://www.w3.org/1999/xlink" x="0px" y="0px"
	 viewBox="0 0 2592 2592" style="enable-background:new 0 0 2592 2592;" xml:space="preserve">
<style type="text/css">
	.st0{fill-rule:evenodd;clip-rule:evenodd;fill:#FFFFFF;}
	.st1{fill-rule:evenodd;clip-rule:evenodd;fill:#1777F2;}
</style>
<g id="whie_backdrop" xmlns:serif="http://www.serif.com/">
	<path class="st0" d="M1284.1437,2592H316.6796C141.9019,2592,0,2450.0981,0,2275.3203V316.6796C0,141.9019,141.8968,0,316.6796,0
		h1958.6406l0.0002,0.0001C2450.1033,0.0001,2592,141.902,2592,316.6797v1958.6406C2592,2450.0981,2450.0981,2592,2275.3203,2592
		H1736.326H1284.1437z"/>
</g>
<g id="facebook_logo">
	<path class="st1" d="M2128.9036,193.5509c148.5652,0,269.1775,120.6166,269.1775,269.1777v1664.8447
		c0,148.561-120.6165,269.1777-269.1777,269.1777h-458.1451v-830.1373h286.5881l54.5292-355.5286h-341.1173V980.3644
		c0-97.2635,47.6484-192.0743,200.4396-192.0743h155.0933V485.6084c0,0-140.7552-24.0201-275.3226-24.0201
		c-280.9424,0-464.5653,170.2704-464.5653,478.5247v270.972H974.1124v355.5286h312.2906v830.1373H464.0587
		c-148.5611,0-269.1777-120.6167-269.1777-269.1777V462.7285c0-148.5611,120.6123-269.1777,269.1777-269.1777h1664.8446
		L2128.9036,193.5509z"/>
</g>
</svg>
